<?xml version="1.0" encoding="utf-8"?>
<!-- Generator: Adobe Illustrator 22.1.0, SVG Export Plug-In . SVG Version: 6.00 Build 0)  -->
<svg version="1.1" id="ZasoÌb_14" xmlns="http://www.w3.org/2000/svg" xmlns:xlink="http://www.w3.org/1999/xlink" x="0px" y="0px"
	 viewBox="0 0 271.1 34" style="enable-background:new 0 0 271.1 34;" xml:space="preserve">
<style type="text/css">
	.st0{fill:#110101;}
</style>
<g>
	<path id="Path_2" class="st0" d="M91.7,7.4C92,7.4,92,7.6,92,7.8s-0.1,2.9-0.1,2.9l4.6-0.4c0.1,0,0.3,0.1,0.3,0.3
		c0.1,0.2,0,0.3-0.2,0.5s-1.6,1.4-2,1.7s-2.2,2.3-2.2,2.3l-0.5,0.1l-1,13.4c0,0,0,0.5,0.1,0.5c0.1,0.1,0.3,0.1,0.4-0.1
		c0.1-0.1,4.1-4,4.1-4s0.3-0.4,0.5-0.3c0.1,0.1,0.1,0.3,0.1,0.5c-0.8,1.6-1.6,3.2-2.6,4.7c-0.7,0.8-1.5,1.6-2.3,2.4
		c-0.3,0.2-0.5,0.4-0.7,0.4s-0.3-0.2-0.5-0.3s-0.7-0.8-1-1c-0.5-0.4-1-0.9-1.5-1.4c-0.1-0.2-0.1-0.4,0-0.6c0-0.2,1-7,1.1-7.2
		s0.7-6.8,0.7-6.8s-1.7-0.1-2.2-0.1c-0.4,0-0.8,0-1.2,0c-0.4,0.1-0.8,0.3-1.1,0.6c-0.2,0.2-0.2,0.7-0.5,0.8
		c-0.2,0.1-0.5-0.2-0.6-0.3s-1.9-1.8-2.2-2.1s-2-1.7-2.2-1.8s-0.5-0.3-0.5-0.5c0-0.3,0.1-0.5,0.4-0.6c0.2-0.2,0.4-0.5,0.5-0.8
		c0.6,0.2,1.3,0.4,1.9,0.5c2,0.2,4,0.2,6,0.1c0.5,0,2.2-0.1,2.2-0.1s0.8-1.6,1-2c0.2-0.4,0.3-0.9,0.5-1.3
		C91.4,7.5,91.5,7.4,91.7,7.4"/>
	<path id="Path_3" class="st0" d="M217.4,11.5c0,0,0.5-1,1-1c0.8,0,0.7,1,0.7,1s6.5,0,7.1-0.1s5.4-0.2,5.8-0.1s1.1,0.1,1.2,0.4
		c0.1,0.3,0.1,0.7,0,1c-0.5,0.8-1.1,1.6-1.7,2.3c-0.7,0.6-1.4,1.1-2.2,1.5c-0.4,0.1-0.6,0.1-0.8-0.1s0.1-0.6-0.1-1.1
		c-0.2-0.4-0.5-0.6-0.9-0.7c-0.4-0.1-4.2-0.6-4.7-0.7s-4.5-0.4-4.5-0.4s-0.9,2.3-1.1,2.7s-0.8,3.1-0.8,3.1s5.1-0.5,6-0.7
		s6.2-0.9,6.4-0.9s0.3-0.1,0.4,0.1c0,0.6,0,1.2-0.2,1.8c-0.1,0.6-0.3,1.2-0.6,1.8c-0.8,0-1.7,0-2.5-0.1c-0.4,0-4.9,0.2-5.4,0.3
		s-4.5,0.3-4.5,0.3s-0.2,3,1,4.1s1.8,1.8,5.3,1.4c2.1-0.3,4.2-0.9,6.1-1.7c0.2,0-0.2,1.5-0.4,1.9s-0.6,1.7-0.6,1.7
		c-2,1-4.2,1.7-6.4,2.2c-1.7,0.3-3.5,0.3-5.1-0.3c-1.6-0.7-2.8-2-3.3-3.7c-0.5-1.9,0.3-5.9,0.3-5.9s-0.7,0-0.8-0.2
		c-0.2-0.4-0.2-0.8,0-1.2c0.3-0.4,1.5-0.6,1.5-0.6s1-2.9,1.2-3.4s1.2-3.1,1.2-3.1s-1.3-0.4-1.7-0.5c-0.3,0-0.6-0.1-0.9-0.2
		c-0.3-0.1-0.4-0.4-0.3-0.7c0,0,0,0,0,0c0.1-0.3,0.4-0.5,0.7-0.6C214.5,11.4,217.4,11.5,217.4,11.5"/>
	<path id="Path_4" class="st0" d="M195,28.8c0,0,2.6,2.2,8.1,2.5c4.7,0.3,7.3-1.6,8.1-3.8c0.9-2.6,0.1-5.5-2.1-7.2
		c-1.6-1.2-5.5-2.4-7.1-2.7c-0.8-0.1-1.6-0.3-2.4-0.7c-0.6-0.3-0.9-0.8-0.8-1.4c0-0.4,0.2-0.7,0.4-0.9c1.2-0.7,2.6-1,3.9-0.8
		c1,0.1,1.9,0.3,2.8,0.7c0.4,0.2,0.7,0.3,0.7,0.7c0,0.3,0,0.6-0.2,0.9c-0.1,0.4-0.4,0.5-0.4,0.7c0,0.2,0.2,0.4,0.4,0.4
		c0.7-0.3,1.3-0.7,1.9-1.1c0.4-0.3,1.7-1.6,1.6-2.5c-0.3-1.3-1.7-1.7-2.7-2c-1.6-0.4-3.2-0.7-4.8-0.7c-2-0.1-4,0.5-5.6,1.7
		c-1.2,1.1-1.8,2.7-1.7,4.3c0,1.6,0.8,3,2,4c1.8,0.9,3.7,1.6,5.7,1.9c0.8,0.1,1.6,0.3,2.3,0.6c0.9,0.4,1.5,1.4,1.4,2.4
		c-0.2,0.9-0.7,1.7-1.5,2.2c-0.9,0.4-2,0.6-3,0.6c-2.3-0.1-5.6-2-5.6-2L195,28.8z"/>
	<path id="Path_5" class="st0" d="M101.4,9.8c0.4,0,0.9,0.7,1,1.1c0.1,0.8,0.1,1.6,0.1,2.5c0,0.5-0.5,4-0.7,4.6s-1.4,7.2-1.4,7.6
		c0,0.6-0.3,2.2,0.6,2.6c0.7,0.3,1.3-0.2,2-1.2c0.7-1,3.7-7,4.3-8s3.8-7.2,4-7.5s0.2-0.5,0.4-0.6s0.6,0,0.7,0.2c0,0.5,0,1-0.1,1.5
		c0,0.6-0.1,8.6-0.1,9.2s-0.2,6.3-0.2,6.3s0.7-1.2,1-1.6s0.8-1.3,1.1-1.3s0.6,0.6,0.6,1c-0.1,0.5-0.2,1-0.4,1.5
		c-0.3,1.1-0.8,2.1-1.4,3c-0.3,0.3-1.2,1.3-1.9,1.2c-1-0.1-1.6-1.4-1.7-2.1c-0.2-1.5-0.3-2.9-0.3-4.4c0-0.5,0.1-3.8,0.1-3.8
		s-2.3,3.8-2.9,4.7c-0.9,1.3-2,2.5-3.2,3.5c-0.7,0.6-1.6,0.9-2.5,0.7c-1.3-0.4-2.3-1.4-2.6-2.7c-0.6-2.3-0.6-4.7,0-7
		c0.3-1.8,1.7-6.7,2-7.5s1-2.6,1.1-2.9S100.9,9.8,101.4,9.8"/>
	<path id="Path_6" class="st0" d="M47.8,18.8c0,0-1.6,7.2-1.7,7.6c-0.1,0.4-1.1,5.1-1.2,5.3c-0.3,0.7-0.6,1.4-1.1,2
		c-0.2,0.1-0.5,0.2-0.8,0.3c-0.5-0.1-1.5-2.1-1.7-2.7c-0.4-1-0.7-2-0.9-3c0-0.3-0.1-1.4-0.1-1.4s0.8-0.6,1.1-0.8
		c0.4-0.3,0.8-0.5,1.2-0.8l0.7,2.4c0,0,0.1,0.1,0.2-0.1s1.2-5.3,1.3-5.6s1.8-7.5,1.8-7.5s-0.8-1.7-0.8-2s-0.2-0.5-0.1-0.8
		c0.2-0.4,1.7-1.2,1.4-1s1.8-0.8,1.8-0.8s1,4.1,1.7,5.8c0.8,2,2.8,6.5,3.6,7.9c0.4,0.7,2.3,4,2.3,4s0.6-5.1,0.7-6.4
		c0.1-0.9,0.6-7.7,0.6-7.7l2.9-3.1c0,0,0.3-0.1,0.2,0.1s-0.1,0.4-0.1,0.4s-0.5,3.2-0.6,3.8s-0.5,9.6-0.5,10.3s-0.4,4.8-1,5.8
		c-0.3,0.6-0.6,1.1-1,1.5c-0.5,0.3-1,0.5-1.5,0.6c-0.9-0.9-1.7-2-2.5-3c-0.5-0.6-2.3-3.5-2.9-4.7C50.6,24.5,47.8,18.8,47.8,18.8"/>
	<path id="Path_7" class="st0" d="M114.6,10.7l4.9-0.5l0.7-1.3c0.2-0.3,0.7-1,0.9-1s0.4,0.3,0.4,0.5c0.1,0.5,0.2,1.1,0.2,1.6
		c0,0,2.7,0.3,3.2,0.3c0.8,0.1,1.5,0.2,2.3,0.4c0.3,0,0.5,0.1,0.7,0.3c0.2,0.2,0.2,0.3,0.4,0.5s1.3,3.5,1.3,3.5
		c0.1,0.3,0.1,0.7,0.1,1c0,0.3-0.1,0.5-0.3,0.7c-0.1,0.1-2.2,2-2.6,2.3s-3.5,2.5-3.5,2.5s7,1.5,7.4,1.7s4.4,1.2,4.4,1.2l-2.2,3.3
		l-12.3-2.6c0,0-0.2,2.8-0.3,4.5c-0.1,0.8-0.2,1.6-0.3,2.3c0,0.1-0.1,0.2-0.2,0.3c-0.1,0.1-0.3,0.2-0.5,0.2c-0.1,0-2.9-0.1-2.9-0.1
		s-0.3-0.1-0.3-0.3s0-0.4,0.1-0.5c0.3-0.2,0.5-0.5,0.7-0.8c0.1-0.3,0.8-7.6,0.8-8.1c0.1-1,0.9-7.8,0.9-7.8l-4.8-0.1
		c0,0-0.8,0-0.9-0.3c-0.1-0.3-0.1-0.6,0-0.8C113.2,13.3,114.6,10.7,114.6,10.7 M121.8,14.5l-0.5,6.3c1-0.5,1.9-1.1,2.9-1.8
		c0.5-0.4,1.9-1.3,2.2-1.6s0.4-0.3,0.4-0.6c0-0.4-0.1-0.8-0.2-1.1c-0.1-0.2-0.2-0.5-0.4-0.7c-0.6-0.2-1.1-0.3-1.7-0.3
		C124.1,14.6,121.8,14.5,121.8,14.5L121.8,14.5z"/>
	<path id="Path_8" class="st0" d="M66.6,22.5c0,0,3.5-6.2,4-7c1.1-1.7,2.3-3.3,3.6-4.8c0.4-0.3,1.3-1,2-0.8c0.5,0.1,1,0.4,1.2,0.9
		c0.2,0.4,0.6,1.3,0.7,1.7s0.9,3.7,0.9,4.2s0.2,4.1,0.2,4.1c0.3-0.1,0.5-0.1,0.8,0c0.2,0.1,0.3,0.3,0.2,0.5
		c-0.1,0.1-0.5,0.4-0.4,0.7c0.2,0.4,0.5,0.7,0.8,1c0.2,0.2,0.4,0.3,0.3,0.5s-0.3,0.3-0.3,0.5s0.4,0.5,0.3,0.8s0,0.3-0.2,0.3
		s-1.2,0-1.2,0c-0.1,1.4-0.3,2.8-0.7,4.2c-0.9,2.7-1.9,2.8-2.2,3c-0.2,0.1-0.5,0.2-0.7,0.3c-0.4-0.4-0.8-0.8-1.1-1.3
		c-0.3-0.4-1-1.7-1-1.7s0-0.1,0.1-0.2s0.2-0.1,0.5-0.1c0.2,0,0.5,0,0.6-0.2c0.2-0.2,0.3-0.4,0.4-0.6c0.2-0.5,0.3-1.1,0.4-1.7
		c0.1-0.8,0.2-1.7,0.2-1.7l-8.4,0.6c0,0-1.8,2.4-2.5,3.7c-0.6,0.9-2.4,3.4-2.4,3.4s-0.4,0.4-0.6,0.4c-0.3,0-0.5-0.2-0.6-0.4
		c-0.3-0.5-0.3-1.1-0.1-1.6c0.4-0.9,1-1.9,1.5-2.8c0.4-0.5,1.5-2.6,1.5-2.6c-0.6-0.1-1.2-0.2-1.8-0.3c-0.5-0.2-1.1-0.4-1.4-0.5
		c-0.4-0.1-0.7-0.5-0.7-1c0-0.4,0.3-0.8,0.7-0.9c0.1,0,2.3-0.4,2.7-0.4S66.6,22.5,66.6,22.5 M69.4,22c0.2,0,6.6-0.6,6.6-0.6
		s0.4-3.8,0.4-4.6c-0.1-1.8-0.3-3.1-0.7-3.3c-0.2-0.1-1,0.8-1.2,1s-2.3,3.2-2.7,3.6C70.9,19.3,70.1,20.6,69.4,22L69.4,22z"/>
	<path id="Path_9" class="st0" d="M181.3,9.9c0.4,0,0.9,0.7,1,1.1c0.1,0.8,0.1,1.6,0.1,2.5c0,0.5-0.5,4-0.7,4.6s-1.4,7.2-1.4,7.6
		c0,0.6-0.3,2.2,0.6,2.6c0.7,0.3,1.3-0.2,2-1.2c0.7-1,3.7-7,4.3-8s3.8-7.2,4-7.5s0.2-0.5,0.4-0.6s0.6,0,0.7,0.2c0,0.5,0,1-0.1,1.5
		c0,0.6-0.1,8.6-0.1,9.2s-0.2,6.3-0.2,6.3s0.7-1.2,1-1.6s0.8-1.3,1.1-1.3s0.6,0.6,0.6,1c-0.1,0.5-0.2,1-0.4,1.5
		c-0.3,1.1-0.8,2.1-1.4,3c-0.3,0.3-1.2,1.3-1.9,1.2c-1-0.1-1.6-1.4-1.7-2.1c-0.2-1.5-0.3-2.9-0.3-4.4c0-0.5,0.1-3.8,0.1-3.8
		s-2.2,3.8-2.9,4.7c-0.9,1.3-2,2.5-3.2,3.5c-0.7,0.6-1.6,0.9-2.5,0.7c-1.3-0.4-2.3-1.4-2.6-2.7c-0.6-2.3-0.6-4.7,0-7
		c0.3-1.8,1.7-6.7,2-7.5s1-2.6,1.1-2.9S180.8,9.9,181.3,9.9"/>
	<path class="st0" d="M176.1,15.9c-0.4-1.7-1.2-3.3-2.3-4.6c-1.1-1-2.6-1.6-4.1-1.6c-0.8,0.1-1.6,0.4-2.3,0.8
		c-0.6,0.4-1.2,0.8-1.7,1.3c-0.3,0.3-0.6,0.6-0.8,1c0.1-0.6,0.2-1.2,0.3-1.8c0.1-0.2,0.2-0.6,0-0.7s-0.3,0.4-0.5,0.7
		c-0.3,0.5-0.6,1-0.8,1.5c-0.3,0.7-0.5,1.5-0.6,2.3c-0.1,0.6-0.1,1.6-0.2,2c0,0.3-0.1,0.5-0.3,0.7c-0.2,0.2-0.5,1.3-0.7,1.6
		c-0.4,0.8-0.7,1.7-1,2.5c-0.2,0.6-0.4,2.5-0.5,3.1c-0.1,0.8-0.1,1.5,0,2.3c0,0.3,0,0.5,0.3,0.5c0.3,0,0.3-1,0.4-1.2
		c0.1-0.3,0.1-0.7,0.3-1.2c0.2-0.5,0.6-1.3,0.6-1.3l0.4,1.6c0.3,0.9,0.7,1.9,1.1,2.8c0.4,0.9,1.1,1.7,1.8,2.4c1,0.9,2.3,1.4,3.6,1.5
		c1.4,0,2.7-0.4,3.9-1.3c1.1-0.9,2-2,2.6-3.3c0.8-2.1,1.3-4.2,1.3-6.5h0C176.5,19.3,176.4,17.6,176.1,15.9z M173.4,20.9
		c-0.1,2-0.6,3.9-1.4,5.7c-0.7,1.2-1.3,2.1-3.1,2.1c-1.1-0.1-2.1-0.7-2.6-1.7c-1-1.8-1.6-3.8-1.8-5.8c-0.1-2,0.4-3.9,1.4-5.6
		c0.7-1,2.3-2.2,3.5-2.2c1.9,0,3,1.5,3.5,3.3C173.3,18.1,173.5,19.5,173.4,20.9L173.4,20.9z"/>
	<path class="st0" d="M159.3,8.5c-0.1-0.1-0.4,0.1-0.6,0.2s-2,2.2-2.2,2.5c-0.3,0.4-0.6,0.8-0.8,1.2c-0.1,0.6-0.2,1.2-0.1,1.7
		c0,0.4-0.1,6.7-0.1,6.7l-4.8-0.3c0,0,0-3.2,0-3.7c0-0.5,0-4.4,0-5c-0.1-0.7-0.2-1.4-0.4-2.1c-0.2-0.5-0.6-0.8-1.1-0.9
		c-0.5,0-1.5,1-1.9,1.4c-0.4,0.4-2,2.3-2,2.3l0.5,0.5c0.4-0.4,0.9-0.7,1.4-1.1c0.2,0,0.3,0.2,0.3,0.2s0,1.5,0,2s-0.2,6-0.2,6
		s-2.5-0.1-3-0.1c-0.5,0.1-1,0.2-1.5,0.4c-0.4,0.2-0.6,0.9-0.8,1.4c-0.1,0.4,0,0.9,0.2,1.3c0,0,3.8,7.5,4.9,8.4c0.7,0.5,1.4,1.1,2,1
		c0.8-0.2,1-1.2,1.3-2c0.2-1,0.4-2.1,0.4-3.1c0-0.4,0-4.3,0-4.3l4.7,0.2l-0.2,9.4l3.6,0.1c0,0-0.1-4.2,0.1-8.3
		c0-0.4,0.2-9.5,0.2-10.1c0-0.7,0.3-5.6,0.3-5.8C159.4,8.7,159.4,8.6,159.3,8.5z M147.3,27.7c-0.2,0-0.4-0.1-0.6-0.3
		c-0.1-0.2-1.2-2.8-1.2-2.8s-0.4-0.8-0.3-1c0.1-0.2,0-0.2,0.4-0.4c0.5-0.1,1.1-0.1,1.7,0c0,0,0.1,0,0.1,0c0,0-0.1,0,0,0.2
		c0.1,0.3,0.2,3.8,0.2,3.8S147.5,27.7,147.3,27.7z"/>
	<path id="Path_12" class="st0" d="M268.5,18.8c0,0-0.5,11.6-12.4,11.6s-12.6-11.6-12.6-11.6v-1.8c4.9,0,8.3,7.5,8.3,7.5
		s2.9-7.1,4.2-7.1c1.5,0,4.1,7.1,4.1,7.1c3.3-6,5.9-7.5,8.4-7.4L268.5,18.8z M256.1,4.8l5.4,5.6l0,6.5c-0.5,0.5-1,1.2-1.3,1.9
		c0,0-2.8-5.1-4.2-5.1c-1.5,0-4.2,5.1-4.2,5.1c-0.4-0.6-0.8-1.2-1.3-1.8l0-6.6L256.1,4.8z M271.1,18.8v-5.1c-2.5,0-4.9,0.5-7,1.7
		l0-0.1V8.8l-8-8L248,8.9v6.2c-2.3-1-4.7-1.5-7.2-1.4l0,5.2c0,0,0,14.5,15.2,14.5S271.1,18.8,271.1,18.8z"/>
	<path id="Path_13" class="st0" d="M28.4,18.4c0,0-0.5,11.9-12.7,11.9S2.8,18.3,2.8,18.3v-1.8c5,0,8.5,7.7,8.5,7.7s3-7.3,4.4-7.3
		c1.5,0,4.2,7.3,4.2,7.3c3.3-6.2,6-7.7,8.6-7.6L28.4,18.4z M15.6,4.1l5.6,5.7l0,6.7c-0.6,0.5-1,1.2-1.3,1.9c0,0-2.9-5.2-4.3-5.2
		c-1.6,0-4.3,5.2-4.3,5.2c-0.4-0.7-0.8-1.3-1.4-1.8l0-6.7L15.6,4.1z M31,18.4v-5.2c-2.5-0.1-5,0.5-7.2,1.7l0-0.1V8.2L15.6,0L7.3,8.3
		l0,6.3c-2.3-1-4.8-1.5-7.3-1.5l0,5.4c0,0,0,14.9,15.6,14.9S31,18.4,31,18.4z"/>
</g>
</svg>
