<svg xmlns="http://www.w3.org/2000/svg" viewBox="61 27 207.291 26"><defs><style>.a,.b{fill:#fff;}.b{fill-rule:evenodd;}</style></defs><g transform="translate(61 27)"><path class="a" d="M155.1,13.591c.2,0,.19.142.213.309s-.088,2.187-.088,2.187l3.548-.274a.4.4,0,0,1,.257.218c.051.163,0,.226-.14.416s-1.208,1.046-1.513,1.286-1.705,1.736-1.705,1.736l-.416.059-.79,10.251s-.037.344.113.407a.256.256,0,0,0,.333-.048c.1-.1,3.1-3.033,3.1-3.033s.265-.32.4-.2a.418.418,0,0,1,.078.356A31.071,31.071,0,0,1,156.5,30.82a22.054,22.054,0,0,1-1.777,1.831c-.206.142-.38.307-.551.3s-.244-.136-.374-.258-.537-.6-.757-.769a8.931,8.931,0,0,1-1.141-1.083.881.881,0,0,1-.01-.479c.007-.142.774-5.334.83-5.539s.514-5.185.514-5.185-1.285-.1-1.649-.078a3.535,3.535,0,0,0-.89.038,2.566,2.566,0,0,0-.843.436c-.119.158-.191.544-.38.624-.131.057-.354-.136-.49-.243s-1.426-1.338-1.716-1.58-1.5-1.3-1.712-1.414-.354-.244-.354-.409a.588.588,0,0,1,.271-.49,2.5,2.5,0,0,0,.406-.6,12.41,12.41,0,0,0,1.491.355,35.087,35.087,0,0,0,4.62.114c.394-.03,1.713-.072,1.713-.072s.621-1.216.774-1.52a8.631,8.631,0,0,0,.367-1.013.282.282,0,0,1,.255-.2" transform="translate(-84.972 -7.953)"/><path class="a" d="M395.249,20.131s.42-.747.785-.727c.616.034.531.737.531.737s4.978,0,5.455-.051,4.136-.115,4.418-.1.811.054.935.331a1.231,1.231,0,0,1,.025.783,12.487,12.487,0,0,1-1.307,1.779,6.181,6.181,0,0,1-1.7,1.151c-.334.041-.474.044-.588-.09s.092-.48-.086-.837a.936.936,0,0,0-.693-.535c-.28-.075-3.2-.449-3.573-.549s-3.423-.3-3.423-.3-.693,1.733-.823,2.045-.62,2.372-.62,2.372,3.932-.417,4.6-.5,4.7-.668,4.9-.7.222-.065.283.1a7.787,7.787,0,0,1-.121,1.4,6.486,6.486,0,0,1-.426,1.387,16.79,16.79,0,0,1-1.9-.045c-.308.01-3.773.186-4.107.2s-3.407.2-3.407.2-.172,2.272.728,3.164,1.357,1.347,4.065,1.091a17.584,17.584,0,0,0,4.657-1.339c.137-.032-.156,1.153-.286,1.467s-.464,1.283-.464,1.283a21.334,21.334,0,0,1-4.889,1.7,7.939,7.939,0,0,1-3.926-.205,4.273,4.273,0,0,1-2.505-2.818A13.414,13.414,0,0,1,392,28.052s-.5.018-.591-.147a1.156,1.156,0,0,1-.032-.894c.213-.288,1.16-.433,1.16-.433s.734-2.237.915-2.635.925-2.356.925-2.356-.96-.273-1.271-.346a2.783,2.783,0,0,1-.677-.173.4.4,0,0,1-.187-.554.59.59,0,0,1,.518-.437c.248-.008,2.493.054,2.493.054" transform="translate(-228.984 -11.355)"/><path class="a" d="M359.426,33.687s1.958,1.685,6.211,1.919c3.614.2,5.6-1.243,6.179-2.894a4.942,4.942,0,0,0-1.589-5.483,16.375,16.375,0,0,0-5.464-2.036,6.111,6.111,0,0,1-1.831-.53,1.064,1.064,0,0,1-.614-1.105,1.03,1.03,0,0,1,.327-.725,4.445,4.445,0,0,1,2.994-.641,6.93,6.93,0,0,1,2.136.535c.3.115.509.249.534.534a1.117,1.117,0,0,1-.153.659c-.111.269-.324.416-.314.559a.347.347,0,0,0,.337.288,9.715,9.715,0,0,0,1.465-.83c.3-.193,1.332-1.209,1.186-1.9-.207-.978-1.268-1.315-2.057-1.565a15.827,15.827,0,0,0-3.684-.528,6.871,6.871,0,0,0-4.272,1.3,4.051,4.051,0,0,0-1.306,3.279,3.933,3.933,0,0,0,1.541,3.045,13.177,13.177,0,0,0,4.38,1.418,7.352,7.352,0,0,1,1.777.467,1.871,1.871,0,0,1,1.062,1.873,2.324,2.324,0,0,1-1.17,1.66,4.772,4.772,0,0,1-2.3.433,12.3,12.3,0,0,1-4.282-1.519Z" transform="translate(-210.335 -11.669)"/><path class="a" d="M182.417,18.1c.315.009.677.506.734.8a12.771,12.771,0,0,1,.041,1.881c-.03.406-.393,3.081-.5,3.533s-1.039,5.47-1.058,5.841c-.022.447-.218,1.713.426,1.975.523.212.983-.191,1.506-.886.57-.763,2.812-5.316,3.279-6.1s2.915-5.482,3.067-5.732.158-.408.33-.463.479-.015.536.156a6.087,6.087,0,0,1-.1,1.119c-.037.436-.092,6.577-.1,7.021s-.131,4.822-.131,4.822.53-.923.728-1.228.581-1.006.836-1.012.428.48.426.765a7.65,7.65,0,0,1-.27,1.174,6.365,6.365,0,0,1-1.1,2.283c-.2.233-.93,1-1.452.935-.747-.094-1.218-1.043-1.334-1.641a30.39,30.39,0,0,1-.2-3.378c.024-.375.068-2.9.068-2.9s-1.721,2.886-2.213,3.579a14.2,14.2,0,0,1-2.441,2.706,2.136,2.136,0,0,1-1.9.545,2.847,2.847,0,0,1-1.97-2.042,11.7,11.7,0,0,1-.037-5.338c.246-1.339,1.316-5.153,1.538-5.7s.781-2.009.83-2.22.148-.5.464-.5" transform="translate(-104.917 -10.591)"/><path class="a" d="M80.122,24.995s-1.218,5.516-1.286,5.789c-.084.336-.811,3.889-.895,4.084a6.539,6.539,0,0,1-.839,1.568,1.472,1.472,0,0,1-.616.195c-.392-.055-1.117-1.575-1.286-2.052a18.074,18.074,0,0,1-.672-2.312c-.035-.224-.083-1.09-.083-1.09s.611-.464.808-.632a10.871,10.871,0,0,1,.953-.6l.533,1.819s.056.084.139-.085.951-4.084.979-4.28,1.37-5.706,1.37-5.706-.587-1.287-.643-1.509-.148-.4-.056-.589c.151-.313,1.334-.906,1.054-.794s1.407-.632,1.407-.632.795,3.1,1.314,4.418c.6,1.516,2.175,4.971,2.72,6.006.289.549,1.728,3.086,1.728,3.086s.472-3.937.56-4.922c.06-.671.448-5.875.448-5.875L89.995,18.5s.2-.055.169.085-.056.279-.056.279-.363,2.433-.446,2.909-.365,7.356-.392,7.86a18.693,18.693,0,0,1-.755,4.448,4.666,4.666,0,0,1-.783,1.175,3.464,3.464,0,0,1-1.147.447,18.967,18.967,0,0,1-1.913-2.326c-.351-.482-1.742-2.666-2.225-3.6-.209-.4-2.324-4.782-2.324-4.782" transform="translate(-43.566 -10.632)"/><path class="b" d="M209.386,16.7l3.761-.35.528-.966c.116-.212.523-.8.7-.762s.274.25.332.41a3.8,3.8,0,0,1,.124,1.225s2.08.194,2.451.234a17.506,17.506,0,0,1,1.754.292,1.556,1.556,0,0,1,.562.213c.156.122.172.232.277.415s1,2.639,1,2.639a2.555,2.555,0,0,1,.067.781,1.13,1.13,0,0,1-.239.565c-.07.075-1.7,1.5-2.008,1.762s-2.64,1.936-2.64,1.936,5.367,1.165,5.688,1.266,3.4.887,3.4.887L223.449,29.8l-9.437-2.026s-.191,2.135-.257,3.413a14.53,14.53,0,0,1-.232,1.776.254.254,0,0,1-.115.212.47.47,0,0,1-.351.128c-.114-.015-2.236-.092-2.236-.092s-.26-.053-.256-.251-.034-.278.092-.406a2.1,2.1,0,0,0,.518-.6c.083-.236.6-5.823.624-6.164.049-.739.706-5.948.706-5.948l-3.67-.056s-.621-.008-.679-.254a.756.756,0,0,1,.036-.624c.118-.182,1.2-2.2,1.2-2.2M214.9,19.63l-.364,4.836a24.916,24.916,0,0,0,2.2-1.369c.356-.278,1.451-1.024,1.652-1.219s.31-.234.335-.492a2.136,2.136,0,0,0-.188-.85c-.076-.158-.139-.4-.289-.5a4.591,4.591,0,0,0-1.327-.259C216.692,19.749,214.9,19.63,214.9,19.63Z" transform="translate(-121.784 -8.556)"/><path class="b" d="M116.267,27.932s2.65-4.729,3.029-5.327a30.861,30.861,0,0,1,2.778-3.632c.3-.249,1.024-.753,1.539-.625a1.383,1.383,0,0,1,.931.665c.129.291.475.984.571,1.3s.68,2.821.694,3.229.164,3.153.164,3.153a.919.919,0,0,1,.6.034.328.328,0,0,1,.156.414c-.054.1-.367.312-.279.535a3.445,3.445,0,0,0,.591.753c.115.116.292.217.258.352s-.257.225-.21.38.272.414.219.631-.008.258-.15.252-.929.027-.929.027a17.372,17.372,0,0,1-.523,3.2c-.7,2.04-1.48,2.125-1.691,2.274a2.061,2.061,0,0,1-.564.238,7.237,7.237,0,0,1-.855-.963c-.2-.338-.734-1.335-.734-1.335s-.012-.061.075-.184.136-.081.366-.081a.525.525,0,0,0,.474-.17,1.307,1.307,0,0,0,.292-.476,8.974,8.974,0,0,0,.29-1.282c.075-.583.122-1.3.122-1.3l-6.43.474s-1.368,1.864-1.937,2.8c-.428.7-1.85,2.566-1.85,2.566s-.312.326-.475.285a.58.58,0,0,1-.475-.291,1.52,1.52,0,0,1-.062-1.254,20,20,0,0,1,1.159-2.1c.3-.387,1.159-1.989,1.159-1.989a10.109,10.109,0,0,1-1.357-.222c-.372-.122-.869-.333-1.059-.379a.691.691,0,0,1-.536-.74.794.794,0,0,1,.55-.7c.091-.033,1.776-.31,2.041-.331s2.061-.173,2.061-.173m2.117-.395c.122-.027,5.019-.478,5.019-.478s.288-2.9.27-3.507c-.041-1.341-.23-2.386-.551-2.529-.141-.052-.733.624-.889.787s-1.782,2.409-2.039,2.749A29.8,29.8,0,0,0,118.384,27.537Z" transform="translate(-65.317 -10.725)"/><path class="a" d="M329.7,18.22c.314.009.674.505.731.8a12.873,12.873,0,0,1,.044,1.881c-.032.405-.4,3.081-.5,3.533s-1.04,5.471-1.055,5.841c-.025.448-.219,1.714.426,1.976.521.211.982-.191,1.5-.888.572-.761,2.813-5.316,3.28-6.1s2.915-5.482,3.067-5.731.156-.409.327-.463.48-.017.534.153a5.673,5.673,0,0,1-.1,1.12c-.038.436-.092,6.578-.1,7.018s-.13,4.825-.13,4.825.531-.925.728-1.228.582-1.008.836-1.012.429.478.426.764a7.839,7.839,0,0,1-.27,1.175,6.413,6.413,0,0,1-1.1,2.283c-.2.233-.928,1-1.45.933-.75-.093-1.221-1.042-1.335-1.64a30.2,30.2,0,0,1-.2-3.377c.022-.376.067-2.9.067-2.9s-1.72,2.887-2.212,3.58a14.079,14.079,0,0,1-2.441,2.706,2.126,2.126,0,0,1-1.9.544,2.844,2.844,0,0,1-1.971-2.04,11.732,11.732,0,0,1-.038-5.338c.248-1.339,1.316-5.153,1.542-5.7s.779-2.008.83-2.219.146-.5.464-.5" transform="translate(-191.106 -10.662)"/><path class="b" d="M305.418,26.4a12.852,12.852,0,0,1-1.033,4.39c-.528.926-.982,1.631-2.374,1.58a2.57,2.57,0,0,1-1.993-1.3,10.233,10.233,0,0,1-1.364-4.44,7.3,7.3,0,0,1,1.065-4.3,4.08,4.08,0,0,1,2.651-1.668c1.443.027,2.26,1.116,2.667,2.53a9.626,9.626,0,0,1,.382,3.2m2.3.064a13.477,13.477,0,0,1-.986,4.934,8.255,8.255,0,0,1-2.009,2.5,5.105,5.105,0,0,1-2.963.965A4.63,4.63,0,0,1,299,33.682a5.721,5.721,0,0,1-1.392-1.8,20.115,20.115,0,0,1-.811-2.119l-.273-1.219s-.311.628-.442.986-.178.717-.245.911-.022.951-.273.938-.213-.207-.232-.405a8.7,8.7,0,0,1,.038-1.762c.108-.47.267-1.919.4-2.359a20.007,20.007,0,0,1,.772-1.947c.156-.3.451-1.125.572-1.259a1.076,1.076,0,0,0,.223-.55c.073-.3.086-1.018.136-1.5a5.5,5.5,0,0,1,.483-1.739,10.972,10.972,0,0,1,.645-1.115c.181-.215.229-.6.42-.509s.063.345,0,.532a9.6,9.6,0,0,0-.248,1.367,6.687,6.687,0,0,1,.633-.733,14.063,14.063,0,0,1,1.3-1.01,4.667,4.667,0,0,1,1.783-.592,4.6,4.6,0,0,1,3.157,1.2,7.907,7.907,0,0,1,1.777,3.537A19.8,19.8,0,0,1,307.722,26.465Z" transform="translate(-172.812 -10.407)"/><path class="b" d="M264.058,18.81s1.186-1.434,1.507-1.759,1.091-1.093,1.485-1.057a1.044,1.044,0,0,1,.845.655,7,7,0,0,1,.334,1.58c.022.419.013,3.443,0,3.809s-.019,2.829-.019,2.829l3.652.224s.1-4.807.108-5.142a5.092,5.092,0,0,1,.108-1.333,9.115,9.115,0,0,1,.629-.93c.181-.261,1.586-1.791,1.691-1.909s.324-.27.438-.163.1.192.105.36-.194,3.961-.2,4.465c0,.455-.121,7.419-.137,7.7-.143,3.082-.07,6.313-.07,6.313l-2.749-.108.127-7.157-3.62-.163s-.016,2.928-.025,3.263a12.637,12.637,0,0,1-.324,2.381c-.194.57-.344,1.389-.957,1.506-.442.085-.989-.353-1.494-.733-.874-.655-3.754-6.413-3.754-6.413a1.492,1.492,0,0,1-.162-.972c.146-.371.315-.941.613-1.1a3.481,3.481,0,0,1,1.16-.342c.334-.017,2.273.077,2.273.077s.117-4.151.124-4.572-.025-1.539-.025-1.539-.1-.19-.235-.184a7.6,7.6,0,0,0-1.049.813Zm.378,8.02a2.672,2.672,0,0,1,1.275.016c.044.015.057.018.057.021s-.063.022-.019.173c.07.219.127,2.907.127,2.907s-.051.333-.159.338a.474.474,0,0,1-.426-.225c-.063-.165-.938-2.142-.938-2.142s-.292-.589-.216-.761S264.166,26.984,264.436,26.83Z" transform="translate(-153.053 -9.116)"/><path class="a" d="M465.108,15.235s-.353,8.857-9.5,8.859S446,15.2,446,15.2V13.823c3.735,0,6.363,5.7,6.363,5.7s2.238-5.439,3.245-5.439c1.125,0,3.106,5.438,3.106,5.438,2.489-4.6,4.485-5.712,6.392-5.662ZM455.595,4.6l4.151,4.257.019,4.961a4.314,4.314,0,0,0-.969,1.42s-2.139-3.884-3.185-3.884c-1.164,0-3.217,3.884-3.217,3.884a6.836,6.836,0,0,0-1.023-1.363l-.013-5.019Zm11.494,10.638V11.35a11.058,11.058,0,0,0-5.391,1.278l-.013-.06V7.635l-6.09-6.1-6.17,6.175,0,4.71a12.92,12.92,0,0,0-5.474-1.105l.025,3.992S443.96,26.38,455.61,26.378,467.089,15.235,467.089,15.235Z" transform="translate(-259.798 -0.897)"/><path class="a" d="M21.7,14.054s-.365,9.084-9.738,9.085-9.858-9.126-9.858-9.126V12.606c3.829,0,6.528,5.85,6.528,5.85s2.3-5.578,3.33-5.578c1.151,0,3.182,5.577,3.182,5.577,2.552-4.722,4.6-5.858,6.556-5.807v1.406ZM11.944,3.143,16.2,7.509l.022,5.088a4.49,4.49,0,0,0-1,1.457s-2.191-3.984-3.26-3.984c-1.2,0-3.3,3.984-3.3,3.984a6.932,6.932,0,0,0-1.052-1.4L7.6,7.509Zm11.79,10.911V10.07a11.344,11.344,0,0,0-5.53,1.311l-.01-.061V6.259L11.944,0,5.617,6.332l0,4.83A13.224,13.224,0,0,0,0,10.029l.029,4.093S.014,25.483,11.965,25.482,23.734,14.054,23.734,14.054Z"/></g></svg>